<svg width="117" height="138" viewBox="0 0 117 138" fill="none" xmlns="http://www.w3.org/2000/svg">
<rect width="117" height="138" fill="#2A3F86"/>
<rect width="117" height="138" fill="url(#paint0_angular)"/>
<rect x="22.3618" y="18.4473" width="72.6758" height="101.46" fill="#121A42"/>
<path d="M64.5 102.5C64.5 107.293 63.8332 111.61 62.7697 114.712C62.2371 116.266 61.6141 117.487 60.9471 118.31C60.2766 119.137 59.6156 119.5 59 119.5C58.3844 119.5 57.7234 119.137 57.0529 118.31C56.3859 117.487 55.7629 116.266 55.2303 114.712C54.1668 111.61 53.5 107.293 53.5 102.5C53.5 97.7075 54.1668 93.3898 55.2303 90.2878C55.7629 88.7343 56.3859 87.513 57.0529 86.6901C57.7234 85.863 58.3844 85.5 59 85.5C59.6156 85.5 60.2766 85.863 60.9471 86.6901C61.6141 87.513 62.2371 88.7343 62.7697 90.2878C63.8332 93.3898 64.5 97.7075 64.5 102.5Z" fill="#2724CD" stroke="black"/>
<path d="M71.5 69C71.5 75.2975 65.7367 80.5 58.5 80.5C51.2633 80.5 45.5 75.2975 45.5 69C45.5 62.7025 51.2633 57.5 58.5 57.5C65.7367 57.5 71.5 62.7025 71.5 69Z" fill="#2724CD" stroke="black"/>
<defs>
<radialGradient id="paint0_angular" cx="0" cy="0" r="1" gradientUnits="userSpaceOnUse" gradientTransform="translate(58.5 69) rotate(-90.3452) scale(83.0015 145.281)">
<stop offset="0.543046" stop-color="white"/>
<stop offset="1" stop-color="white" stop-opacity="0"/>
</radialGradient>
</defs>
</svg>
